<svg width="280" height="53" viewBox="0 0 280 53" fill="none" xmlns="http://www.w3.org/2000/svg">
<path d="M34.488 23.424C42.072 24.24 48.072 25.248 52.488 26.448C56.952 27.648 60.216 29.208 62.28 31.128C64.344 33.048 65.376 35.52 65.376 38.544C65.376 42.816 63.288 46.128 59.112 48.48C54.936 50.832 49.296 52.008 42.192 52.008C35.952 52.008 29.76 51.048 23.616 49.128C17.52 47.16 12.072 44.544 7.272 41.28V51H0.504V33.288L4.752 32.424C9.312 36.696 14.952 40.056 21.672 42.504C28.44 44.904 35.304 46.104 42.264 46.104C47.016 46.104 50.784 45.456 53.568 44.16C56.352 42.864 57.744 40.992 57.744 38.544C57.744 36.816 56.904 35.448 55.224 34.44C53.544 33.384 50.784 32.52 46.944 31.848C43.104 31.128 37.464 30.408 30.024 29.688C22.776 28.968 17.016 27.984 12.744 26.736C8.52 25.488 5.448 23.904 3.528 21.984C1.656 20.064 0.72 17.64 0.72 14.712C0.72 10.248 2.832 6.792 7.056 4.344C11.28 1.896 17.256 0.671996 24.984 0.671996C30.984 0.671996 36.504 1.56 41.544 3.336C46.632 5.064 51.216 7.488 55.296 10.608V1.608H61.992V19.032L57.96 19.824C53.976 15.6 49.224 12.36 43.704 10.104C38.184 7.8 31.92 6.648 24.912 6.648C19.824 6.648 15.792 7.344 12.816 8.736C9.888 10.128 8.424 12.12 8.424 14.712C8.424 16.392 9.192 17.736 10.728 18.744C12.264 19.752 14.856 20.616 18.504 21.336C22.152 22.008 27.48 22.704 34.488 23.424ZM115.07 51.936C107.822 51.936 101.318 50.88 95.5575 48.768C89.7975 46.608 85.2615 43.608 81.9495 39.768C78.6855 35.88 77.0535 31.392 77.0535 26.304C77.0535 21.216 78.6855 16.728 81.9495 12.84C85.2615 8.952 89.7975 5.952 95.5575 3.84C101.318 1.68 107.822 0.599997 115.07 0.599997C122.318 0.599997 128.822 1.68 134.582 3.84C140.342 5.952 144.854 8.952 148.118 12.84C151.382 16.728 153.014 21.216 153.014 26.304C153.014 31.392 151.382 35.88 148.118 39.768C144.854 43.608 140.342 46.608 134.582 48.768C128.822 50.88 122.318 51.936 115.07 51.936ZM114.998 45.744C120.95 45.744 126.206 44.952 130.766 43.368C135.374 41.736 138.926 39.456 141.422 36.528C143.966 33.552 145.238 30.144 145.238 26.304C145.238 22.416 143.966 19.008 141.422 16.08C138.926 13.104 135.374 10.824 130.766 9.24C126.206 7.608 120.95 6.792 114.998 6.792C108.998 6.792 103.694 7.608 99.0855 9.24C94.5255 10.824 90.9975 13.104 88.5015 16.08C86.0055 19.008 84.7575 22.416 84.7575 26.304C84.7575 30.192 86.0055 33.6 88.5015 36.528C90.9975 39.456 94.5255 41.736 99.0855 43.368C103.694 44.952 108.998 45.744 114.998 45.744ZM176.985 27.708C173.361 27.708 171.549 29.436 171.549 32.892V34.044H181.233V36.888H171.549V48.156H180.297V51H161.217V48.156H168.021V36.888H161.217V34.044H168.021V33.036C168.021 30.324 168.753 28.248 170.217 26.808C171.681 25.344 173.829 24.612 176.661 24.612C179.637 24.612 182.925 25.368 186.525 26.88L185.373 29.688C184.053 29.088 182.661 28.608 181.197 28.248C179.733 27.888 178.329 27.708 176.985 27.708ZM203.985 27.708C200.361 27.708 198.549 29.436 198.549 32.892V34.044H208.233V36.888H198.549V48.156H207.297V51H188.217V48.156H195.021V36.888H188.217V34.044H195.021V33.036C195.021 30.324 195.753 28.248 197.217 26.808C198.681 25.344 200.829 24.612 203.661 24.612C206.637 24.612 209.925 25.368 213.525 26.88L212.373 29.688C211.053 29.088 209.661 28.608 208.197 28.248C206.733 27.888 205.329 27.708 203.985 27.708ZM244.881 48.048C240.897 50.352 236.241 51.504 230.913 51.504C228.033 51.504 225.417 51.168 223.065 50.496C220.737 49.824 218.889 48.84 217.521 47.544C216.153 46.224 215.469 44.628 215.469 42.756C215.469 40.908 216.165 39.288 217.557 37.896C218.949 36.504 220.845 35.436 223.245 34.692C225.669 33.948 228.357 33.576 231.309 33.576C235.245 33.576 238.353 34.08 240.633 35.088C242.913 36.096 244.053 37.524 244.053 39.372C244.053 41.124 243.033 42.444 240.993 43.332C238.977 44.22 236.145 44.664 232.497 44.664C228.345 44.664 223.809 43.872 218.889 42.288V42.648C218.889 43.872 219.417 44.952 220.473 45.888C221.553 46.8 223.029 47.508 224.901 48.012C226.797 48.492 228.945 48.732 231.345 48.732C233.817 48.732 236.061 48.468 238.077 47.94C240.093 47.388 241.953 46.608 243.657 45.6L244.881 48.048ZM231.597 36.132C228.957 36.132 226.533 36.492 224.325 37.212C222.117 37.932 220.557 38.94 219.645 40.236C221.733 40.86 223.893 41.328 226.125 41.64C228.357 41.928 230.493 42.072 232.533 42.072C235.197 42.072 237.189 41.868 238.509 41.46C239.853 41.028 240.525 40.308 240.525 39.3C240.525 38.292 239.733 37.512 238.149 36.96C236.565 36.408 234.381 36.132 231.597 36.132ZM279.43 33.648V41.64H276.334V36.888C274.078 36.936 271.666 37.464 269.098 38.472C266.53 39.48 263.914 40.944 261.25 42.864V48.156H268.558V51H250.162V48.156H257.722V36.888H250.162V34.044H261.25V40.416C266.938 35.88 272.374 33.612 277.558 33.612L279.43 33.648Z" fill="black"/>
</svg>
